<?xml version="1.0" encoding="UTF-8"?>
<svg id="Camada_1" data-name="Camada 1" xmlns="http://www.w3.org/2000/svg" viewBox="0 0 1920 1080">
  <defs>
    <style>
      .cls-1 {
        fill: #ec6e00;
      }

      .cls-2 {
        fill: #ffce35;
      }
    </style>
  </defs>
  <path class="cls-2" d="m184.06,903.44h63.65c101.67,0,184.08-75.4,184.08-168.41v-13.93c0-169.96,243.93-232.92,341.02-88.01l27.48,41.01c33.47,49.95,92.9,80.39,156.94,80.39h0c64.85,0,124.92-31.22,158.12-82.19l32.55-49.96c95.46-146.53,341.2-85.27,342.2,85.31l.17,28.27c.55,92.65,82.8,167.5,184.08,167.5h61.74c97.05,0,176.52-68.7,183.57-155.78l.51-747.66H-.18v281.44H-.02v453.59c0,93.01,82.42,168.41,184.08,168.41Z"/>
  <path class="cls-2" d="m1735.92,992.55h-61.74c-101.28,0-183.53-74.85-184.08-167.5l-.17-28.27c-1-170.58-246.74-231.85-342.2-85.31l-32.55,49.96c-33.2,50.96-93.27,82.19-158.12,82.19h0c-64.04,0-123.47-30.45-156.94-80.39l-27.48-41.01c-97.09-144.9-341.02-81.95-341.02,88.01v13.93c0,93.01-82.42,168.41-184.08,168.41h-63.65C82.22,992.55-.2,917.15-.2,824.14v87.45c0,93.01,82.42,168.41,184.08,168.41h63.65c101.67,0,184.08-75.4,184.08-168.41v-13.93c0-169.96,243.93-232.92,341.02-88.01l27.48,41.01c33.47,49.95,92.9,80.39,156.94,80.39h0c64.85,0,124.92-31.22,158.12-82.19l32.55-49.96c95.46-146.53,341.2-85.27,342.2,85.31l.17,28.27c.55,92.65,82.8,167.5,184.08,167.5h61.74c101.87,0,184.37-75.69,184.08-168.89l-.24-78.3c-4.93,88.95-85.32,159.74-183.84,159.74Z"/>
  <path class="cls-1" d="m1735.92,903.44h-61.74c-101.28,0-183.53-74.85-184.08-167.5l-.17-28.27c-1-170.58-246.74-231.85-342.2-85.31l-32.55,49.96c-33.2,50.96-93.27,82.19-158.12,82.19h0c-64.04,0-123.47-30.45-156.94-80.39l-27.48-41.01c-97.09-144.9-341.02-81.95-341.02,88.01v13.93c0,93.01-82.42,168.41-184.08,168.41h-63.65C82.22,903.44-.2,828.04-.2,735.04v89.11c0,93.01,82.42,168.41,184.08,168.41h63.65c101.67,0,184.08-75.4,184.08-168.41v-13.93c0-169.96,243.93-232.92,341.02-88.01l27.48,41.01c33.47,49.95,92.9,80.39,156.94,80.39h0c64.85,0,124.92-31.22,158.12-82.19l32.55-49.96c95.46-146.53,341.2-85.27,342.2,85.31l.17,28.27c.55,92.65,82.8,167.5,184.08,167.5h61.74c98.52,0,178.91-70.79,183.84-159.74l-.27-85.15c-7.05,87.08-86.52,155.78-183.57,155.78Z"/>
</svg>