<?xml version="1.0" encoding="UTF-8"?>
<svg id="Camada_1" data-name="Camada 1" xmlns="http://www.w3.org/2000/svg" viewBox="0 0 856.31 284.62">
  <defs>
    <style>
      .cls-1 {
        fill: #fff;
      }

      .cls-2 {
        fill: #ec6e00;
      }
    </style>
  </defs>
  <path class="cls-1" d="m171.47,176.67l-.02-3.32c-.11-20-26.47-27.18-36.71-10l-3.49,5.86c-3.56,5.98-10,9.64-16.96,9.64h0c-6.87,0-13.24-3.57-16.83-9.43l-2.95-4.81c-10.41-16.99-36.58-9.61-36.58,10.32v1.63c0,10.9-8.84,19.75-19.75,19.75h-6.83c-10.9,0-19.75-8.84-19.75-19.75V38.88c0-10.9,8.84-19.75,19.75-19.75h10.42c6.89,0,13.28,3.59,16.86,9.48l39.42,64.74c7.74,12.72,26.24,12.61,33.84-.18l38.24-64.37c3.56-5.99,10.01-9.66,16.98-9.66h10.33c10.88,0,19.71,8.81,19.74,19.69l.39,137.68c.03,10.93-8.82,19.8-19.74,19.8h-6.62c-10.86,0-19.69-8.78-19.74-19.64Z"/>
  <g>
    <path class="cls-2" d="m679.75,229.24h5.1v-2.64c0-2.38.44-4.55,1.32-6.5.88-1.96,2.12-3.61,3.74-4.97,1.61-1.36,3.57-2.41,5.86-3.15,2.29-.74,4.89-1.1,7.78-1.1s5.16.37,7.14,1.1v13.26c-.45-.06-.89-.1-1.32-.13-.42-.03-.95-.04-1.57-.04-2.21,0-3.84.28-4.89.85-1.05.57-1.57,1.67-1.57,3.31h8.5v13.69h-8.5v29.24h-16.49v-29.24h-5.1v-13.69Z"/>
    <path class="cls-2" d="m710.94,250.66c0-3.4.52-6.49,1.57-9.27,1.05-2.78,2.55-5.17,4.5-7.18,1.96-2.01,4.29-3.56,7.01-4.63,2.72-1.08,5.72-1.62,9.01-1.62s6.36.54,9.05,1.62c2.69,1.08,5.02,2.62,6.97,4.63,1.95,2.01,3.46,4.41,4.5,7.18,1.05,2.78,1.57,5.87,1.57,9.27s-.52,6.49-1.57,9.27c-1.05,2.78-2.55,5.17-4.5,7.18-1.96,2.01-4.28,3.56-6.97,4.63-2.69,1.08-5.71,1.61-9.05,1.61s-6.29-.54-9.01-1.61c-2.72-1.08-5.06-2.62-7.01-4.63-1.95-2.01-3.46-4.41-4.5-7.18-1.05-2.78-1.57-5.87-1.57-9.27Zm16.57,0c0,2.83.5,5.04,1.49,6.63.99,1.59,2.34,2.38,4.04,2.38s3.05-.79,4.04-2.38c.99-1.59,1.49-3.8,1.49-6.63s-.5-4.97-1.49-6.59c-.99-1.62-2.34-2.42-4.04-2.42s-3.05.81-4.04,2.42c-.99,1.61-1.49,3.81-1.49,6.59Z"/>
    <path class="cls-2" d="m756.5,250.66c0-3.4.52-6.49,1.57-9.27,1.05-2.78,2.55-5.17,4.5-7.18,1.96-2.01,4.29-3.56,7.01-4.63,2.72-1.08,5.72-1.62,9.01-1.62s6.36.54,9.05,1.62c2.69,1.08,5.02,2.62,6.97,4.63,1.95,2.01,3.46,4.41,4.5,7.18,1.05,2.78,1.57,5.87,1.57,9.27s-.52,6.49-1.57,9.27c-1.05,2.78-2.55,5.17-4.5,7.18-1.96,2.01-4.28,3.56-6.97,4.63-2.69,1.08-5.71,1.61-9.05,1.61s-6.29-.54-9.01-1.61c-2.72-1.08-5.06-2.62-7.01-4.63-1.95-2.01-3.46-4.41-4.5-7.18-1.05-2.78-1.57-5.87-1.57-9.27Zm16.57,0c0,2.83.5,5.04,1.49,6.63.99,1.59,2.34,2.38,4.04,2.38s3.05-.79,4.04-2.38c.99-1.59,1.49-3.8,1.49-6.63s-.5-4.97-1.49-6.59c-.99-1.62-2.34-2.42-4.04-2.42s-3.05.81-4.04,2.42c-.99,1.61-1.49,3.81-1.49,6.59Z"/>
    <path class="cls-2" d="m847.45,272.08h-15.64v-8.58c-2.21,6.57-6.46,9.86-12.75,9.86-2.55,0-4.86-.55-6.93-1.66-2.07-1.1-3.85-2.65-5.35-4.63-1.5-1.98-2.66-4.38-3.48-7.18-.82-2.81-1.23-5.91-1.23-9.31s.41-6.49,1.23-9.27c.82-2.78,1.97-5.16,3.44-7.14,1.47-1.98,3.26-3.51,5.35-4.59,2.1-1.08,4.42-1.62,6.97-1.62,5.55,0,9.52,2.55,11.9,7.65v-23.89h16.49v60.35Zm-16.49-21.5c0-2.78-.55-4.96-1.66-6.54-1.1-1.59-2.62-2.38-4.55-2.38s-3.43.79-4.5,2.38c-1.08,1.59-1.62,3.77-1.62,6.54s.55,5.06,1.66,6.67c1.1,1.62,2.59,2.42,4.46,2.42s3.44-.81,4.55-2.42c1.1-1.61,1.66-3.84,1.66-6.67Z"/>
  </g>
  <g>
    <path class="cls-1" d="m287.07,173.84c-2.57,7.14-6.6,12.66-12.09,16.58-5.49,3.92-11.88,5.88-19.15,5.88-4.57,0-8.74-.82-12.52-2.46-3.78-1.64-7.03-3.89-9.74-6.74-2.71-2.85-4.81-6.28-6.31-10.27-1.5-3.99-2.25-8.42-2.25-13.27,0-10.27,3.35-18.37,10.06-24.29,6.7-5.92,15.91-8.88,27.61-8.88,3,0,6.56.21,10.7.64,4.14.43,8.7,1.07,13.7,1.93v-.86c0-4.56-1.46-7.84-4.39-9.84-2.93-2-7.74-3-14.45-3-10.42,0-21.76,2.14-34.03,6.42v-24.45c0-6.52,4.46-12.19,10.8-13.72l.12-.03c3.85-.93,7.77-1.71,11.77-2.35,3.99-.64,7.92-1.14,11.77-1.5,3.85-.35,7.35-.54,10.49-.54,7.7,0,14.59,1.04,20.65,3.1,6.06,2.07,11.24,5.03,15.52,8.88,4.28,3.85,7.56,8.56,9.84,14.12,2.28,5.56,3.42,11.77,3.42,18.62v59.68c0,3.09-2.5,5.59-5.59,5.59h-30.33c-3.09,0-5.59-2.5-5.59-5.59v-13.67Zm-21.61-13.05c0,2.57.78,4.64,2.35,6.21,1.57,1.57,3.64,2.35,6.21,2.35,3.85,0,6.99-1.68,9.42-5.03,2.42-3.35,3.64-7.74,3.64-13.16v-.43c-.72-.57-2.43-.86-5.14-.86-5.28,0-9.35.96-12.2,2.89-2.86,1.93-4.28,4.6-4.28,8.02Z"/>
    <path class="cls-1" d="m343.33,85.24h26.57c4.13,0,7.47,3.35,7.47,7.47v17.35c3.71-9.13,8.88-16.08,15.51-20.86.07-.05.13-.1.2-.14,10.01-7.1,23.88.28,23.88,12.55v15.95c-12.98,0-22.83,2.64-29.53,7.92-6.71,5.28-10.06,12.84-10.06,22.68v35.7c0,5.1-4.14,9.24-9.24,9.24h-23.04c-5.1,0-9.24-4.14-9.24-9.24v-91.15c0-4.13,3.35-7.47,7.47-7.47Z"/>
    <path class="cls-1" d="m474.32,173.84c-2.57,7.14-6.6,12.66-12.09,16.58-5.49,3.92-11.88,5.88-19.15,5.88-4.57,0-8.74-.82-12.52-2.46-3.78-1.64-7.03-3.89-9.74-6.74-2.71-2.85-4.81-6.28-6.31-10.27-1.5-3.99-2.25-8.42-2.25-13.27,0-10.27,3.35-18.37,10.06-24.29,6.7-5.92,15.91-8.88,27.61-8.88,3,0,6.56.21,10.7.64,4.14.43,8.7,1.07,13.7,1.93v-.86c0-4.56-1.46-7.84-4.39-9.84-2.93-2-7.74-3-14.45-3-10.42,0-21.76,2.14-34.03,6.42v-26.66c0-5.11,3.43-9.61,8.37-10.9.84-.22,1.68-.43,2.54-.64,3.85-.93,7.77-1.71,11.77-2.35,3.99-.64,7.92-1.14,11.77-1.5,3.85-.35,7.35-.54,10.49-.54,7.7,0,14.59,1.04,20.65,3.1,6.06,2.07,11.24,5.03,15.52,8.88,4.28,3.85,7.56,8.56,9.84,14.12,2.28,5.56,3.42,11.77,3.42,18.62v54.56c0,5.92-4.8,10.71-10.71,10.71h-20.09c-5.92,0-10.71-4.8-10.71-10.71v-8.55Zm-21.61-13.05c0,2.57.78,4.64,2.35,6.21,1.57,1.57,3.64,2.35,6.21,2.35,3.85,0,6.99-1.68,9.42-5.03,2.42-3.35,3.64-7.74,3.64-13.16v-.43c-.72-.57-2.43-.86-5.14-.86-5.28,0-9.35.96-12.2,2.89-2.86,1.93-4.28,4.6-4.28,8.02Z"/>
    <path class="cls-1" d="m520.97,139.39c0-18.4,5.06-32.56,15.19-42.48,10.13-9.91,24.75-14.87,43.87-14.87,4.42,0,9.24.29,14.45.86.88.1,1.77.2,2.67.31,7.98,1,13.92,7.86,13.92,15.89v1.97c0,9.36-7.97,16.64-17.3,15.98-1.24-.09-2.46-.13-3.67-.13-8.56,0-15.27,1.96-20.12,5.89-4.85,3.93-7.28,9.38-7.28,16.37s2.42,12.49,7.28,16.48c4.85,4,11.56,5.99,20.12,5.99,1.21,0,2.43-.04,3.67-.13,9.33-.66,17.3,6.62,17.3,15.98v2.19c0,8.1-6.11,14.94-14.17,15.76-.06,0-.11.01-.17.02-5.71.57-11.56.86-17.55.86-18.55,0-32.89-4.92-43.01-14.77-10.13-9.84-15.19-23.89-15.19-42.16Z"/>
    <path class="cls-1" d="m678.04,174.66c0-.17-.23-.2-.29-.05-2.58,6.76-6.51,12.03-11.8,15.81-5.49,3.92-11.88,5.88-19.15,5.88-4.57,0-8.74-.82-12.52-2.46-3.78-1.64-7.03-3.89-9.74-6.74-2.71-2.85-4.81-6.28-6.31-10.27-1.5-3.99-2.25-8.42-2.25-13.27,0-10.27,3.35-18.37,10.06-24.29,6.7-5.92,15.91-8.88,27.61-8.88,3,0,6.56.21,10.7.64,4.14.43,8.7,1.07,13.7,1.93v-.86c0-4.56-1.46-7.84-4.39-9.84-2.93-2-7.74-3-14.45-3-10.36,0-21.63,2.12-33.83,6.35-.1.03-.2-.04-.2-.14v-24.12c0-6.59,4.51-12.32,10.91-13.87h0c3.85-.93,7.77-1.71,11.77-2.35,3.99-.64,7.92-1.14,11.77-1.5,3.85-.35,7.35-.54,10.49-.54,7.7,0,14.59,1.04,20.65,3.1,6.06,2.07,11.24,5.03,15.51,8.88,4.28,3.85,7.56,8.56,9.84,14.12,2.28,5.56,3.43,11.77,3.43,18.62v56.19c0,5.01-4.06,9.08-9.08,9.08h-23.36c-5.01,0-9.08-4.06-9.08-9.08v-9.36Zm-21.61-13.88c0,2.57.78,4.64,2.35,6.21,1.57,1.57,3.64,2.35,6.21,2.35,3.85,0,6.99-1.68,9.42-5.03,2.42-3.35,3.64-7.74,3.64-13.16v-.43c-.72-.57-2.43-.86-5.14-.86-5.28,0-9.35.96-12.2,2.89-2.86,1.93-4.28,4.6-4.28,8.02Z"/>
    <path class="cls-1" d="m728.76,43.3h38.31l-14.34,60.13h-29.75l5.78-60.13Z"/>
    <path class="cls-1" d="m807.3,82.03c3.56,0,7.2.14,10.91.43,3.71.29,7.38.72,11.02,1.28,3.64.57,7.13,1.28,10.49,2.14,1.72.44,3.36.9,4.91,1.38,2.49.77,4.19,3.07,4.19,5.68v23.03c0,4.11-4.06,6.94-7.93,5.58-.03-.01-.06-.02-.09-.03-3.07-1.07-6.31-2-9.74-2.78-3.42-.78-6.85-1.39-10.27-1.82-3.42-.43-6.56-.64-9.42-.64-5.14,0-7.7,1.07-7.7,3.21,0,2.28,4.14,4.35,12.41,6.21,7.28,1.71,13.48,3.6,18.62,5.67,5.14,2.07,9.31,4.53,12.52,7.38,3.21,2.86,5.53,6.14,6.96,9.84,1.42,3.71,2.14,7.99,2.14,12.84,0,11.13-4.53,19.72-13.59,25.79-9.06,6.06-21.86,9.09-38.41,9.09-7.13,0-14.16-.61-21.08-1.82-5.36-.94-10.44-2.16-15.24-3.65-2.47-.77-4.13-3.07-4.13-5.66v-24.01c0-4.16,4.18-7.04,8.06-5.54.38.15.76.29,1.14.44,3.42,1.28,6.95,2.39,10.59,3.32,3.64.93,7.24,1.68,10.81,2.25,3.56.57,6.7.86,9.42.86,6.7,0,10.06-1.07,10.06-3.21,0-1.28-1.28-2.28-3.85-3-2.57-.71-6.07-1.64-10.49-2.78-13.7-3.28-23.51-7.77-29.42-13.48-5.92-5.7-8.88-13.27-8.88-22.68,0-11.13,3.99-19.79,11.98-26,7.99-6.21,19.33-9.31,34.03-9.31Z"/>
  </g>
</svg>