<?xml version="1.0" encoding="UTF-8"?>
<svg id="Camada_1" data-name="Camada 1" xmlns="http://www.w3.org/2000/svg" viewBox="0 0 225.01 206.7">
  <defs>
    <style>
      .cls-1 {
        fill: #fff;
      }
    </style>
  </defs>
  <path class="cls-1" d="m171.47,176.67l-.02-3.32c-.11-20-26.47-27.18-36.71-10l-3.49,5.86c-3.56,5.98-10,9.64-16.96,9.64h0c-6.87,0-13.24-3.57-16.83-9.43l-2.95-4.81c-10.41-16.99-36.58-9.61-36.58,10.32v1.63c0,10.9-8.84,19.75-19.75,19.75h-6.83c-10.9,0-19.75-8.84-19.75-19.75V38.88c0-10.9,8.84-19.75,19.75-19.75h10.42c6.89,0,13.28,3.59,16.86,9.48l39.42,64.74c7.74,12.72,26.24,12.61,33.84-.18l38.24-64.37c3.56-5.99,10.01-9.66,16.98-9.66h10.33c10.88,0,19.71,8.81,19.74,19.69l.39,137.68c.03,10.93-8.82,19.8-19.74,19.8h-6.62c-10.86,0-19.69-8.78-19.74-19.64Z"/>
</svg>