<?xml version="1.0" encoding="UTF-8"?>
<svg id="Camada_1" data-name="Camada 1" xmlns="http://www.w3.org/2000/svg" viewBox="0 0 895.65 292.01">
  <defs>
    <style>
      .cls-1 {
        fill: #fff;
      }

      .cls-2 {
        fill: #ec6e00;
      }
    </style>
  </defs>
  <g>
    <path class="cls-1" d="m56.58,155.44c-5.46,0-10.99-.03-16.58-.1-5.59-.06-11.05-.42-16.38-1.07-1.69-.26-3.09-.62-4.19-1.07-1.1-.45-1.66-1.59-1.66-3.41,0-3.38.33-7.8.98-13.26.65-5.46,1.43-11.18,2.34-17.16.91-5.98,1.85-11.8,2.83-17.45.98-5.65,1.79-10.37,2.44-14.14,2.08-11.83,4.26-23.69,6.53-35.59,2.27-11.9,5.04-23.63,8.29-35.2.52-2.34,1.88-3.57,4.1-3.71,4.16-.52,8.64-.91,13.46-1.17,4.81-.26,9.29-.39,13.45-.39.65,0,1.33.03,2.05.1.71.07,1.4.16,2.05.29,4.16,9.75,8.16,19.5,11.99,29.25,3.83,9.75,7.7,19.57,11.6,29.44,2.6-3.51,4.88-7.51,6.83-11.99,1.95-4.49,3.8-9.13,5.56-13.94,1.75-4.81,3.57-9.52,5.46-14.14,1.88-4.61,4-8.87,6.34-12.77,1.04-1.56,2.21-2.7,3.51-3.41,1.3-.71,2.92-1.07,4.88-1.07,4.16,0,8.35-.06,12.58-.19,4.22-.13,8.48-.19,12.77-.19,2.6,0,4.22.33,4.88.97.65.65,1.23,2.21,1.76,4.68,2.73,16.25,5.3,32.31,7.7,48.17,2.4,15.86,4.71,31.92,6.92,48.17.78,5.85,1.82,11.99,3.12,18.43,1.3,6.44,1.95,12.58,1.95,18.43,0,1.43-.46,2.28-1.37,2.54-.91.26-1.95.52-3.12.78-5.2.78-10.73,1.17-16.58,1.17h-16.77c-2.21,0-3.48-.62-3.8-1.85-.33-1.23-.68-2.7-1.07-4.39-1.69-11.05-3.31-21.97-4.88-32.76-1.56-10.79-3.45-21.65-5.65-32.56-1.56,2.34-2.89,4.94-4,7.8-1.11,2.86-2.11,5.82-3.02,8.87-.91,3.06-1.82,6.11-2.73,9.17-.91,3.06-1.95,5.88-3.12,8.48-.78,2.47-2.47,3.7-5.07,3.7l-15.21-.19c-1.82,0-3.12-.29-3.9-.88-.78-.58-1.69-1.59-2.73-3.02-2.99-5.2-5.92-10.5-8.77-15.89-2.86-5.39-5.92-10.56-9.17-15.5-2.6,11.18-4.91,22.39-6.92,33.64-2.02,11.25-3.28,22.72-3.8,34.42h-5.85Z"/>
    <path class="cls-1" d="m292.52,154.66c-1.17.78-3.28,1.3-6.34,1.56-3.06.26-6.27.42-9.65.49-3.38.07-6.66.07-9.85,0-3.19-.06-5.56-.1-7.12-.1-3.12,0-5.1-.39-5.95-1.17-.85-.78-1.59-2.66-2.24-5.65-.52-2.6-.98-5.3-1.37-8.09-.39-2.79-.91-5.62-1.56-8.48-3.64-1.17-7.31-1.66-11.02-1.46-3.71.2-7.38-.03-11.02-.68-1.69,4.68-2.67,8.58-2.92,11.7-.26,3.12-.42,5.69-.49,7.7-.07,2.02-.36,3.54-.88,4.58-.52,1.04-1.89,1.75-4.1,2.15-2.21.39-5.56.62-10.04.68-4.48.06-10.69.1-18.62.1-.65,0-1.43-.13-2.34-.39-.91-.26-1.36-.91-1.36-1.95,0-3.38.29-6.83.88-10.33.58-3.51,1.14-6.89,1.66-10.14,3.64-18.59,7.57-37.02,11.8-55.28,4.22-18.26,8.87-36.5,13.94-54.7.26-1.17.55-2.5.88-4,.32-1.49.78-2.92,1.37-4.29.58-1.36,1.3-2.5,2.14-3.41.84-.91,1.98-1.43,3.41-1.56,6.11-.65,12.35-.88,18.72-.68,6.37.19,12.61.29,18.72.29.78,0,1.53.07,2.24.19.71.13,1.4.26,2.05.39,4.03,24.05,8.58,47.87,13.65,71.47,5.07,23.6,10.2,47.29,15.4,71.08Zm-48.17-55.38l-5.07-26.91c-1.82,4.29-3.25,8.71-4.29,13.26-1.04,4.55-2.02,9.1-2.93,13.65h12.29Z"/>
    <path class="cls-1" d="m366.82,92.26c.65,1.17,1.75,3.41,3.31,6.73s3.38,7.12,5.46,11.41c2.08,4.29,4.19,8.78,6.34,13.46,2.15,4.68,4.13,9.07,5.95,13.16,1.82,4.1,3.31,7.57,4.48,10.43,1.17,2.86,1.75,4.62,1.75,5.26,0,.78-.72,1.4-2.15,1.85-1.43.46-3.28.85-5.56,1.17-2.28.33-4.75.52-7.41.58-2.67.07-5.23.13-7.7.19-2.47.07-4.71.07-6.73,0-2.02-.06-3.41-.1-4.19-.1-1.82,0-3.02-.45-3.61-1.36-.58-.91-1.14-2.27-1.66-4.1-2.6-7.8-5.43-15.37-8.48-22.72-3.06-7.34-6.27-14.72-9.65-22.13l-.98.39c-.13,7.93-.16,15.79-.1,23.6.06,7.8-.1,15.6-.49,23.4-.13,2.47-.81,3.87-2.05,4.19-1.24.32-2.96.49-5.17.49-5.72-.26-11.34-.42-16.87-.49-5.53-.07-11.21.03-17.06.29.26-5.85.42-11.37.49-16.57.06-5.2.1-10.24.1-15.11v-14.43c0-4.74.06-9.65.19-14.72.39-13.78.58-27.5.58-41.15s.26-27.3.78-40.95c.13-1.43,1.62-2.57,4.48-3.41,2.86-.84,6.47-1.46,10.82-1.85,4.35-.39,9.13-.62,14.33-.68,5.2-.06,10.2-.03,15.01.1,4.81.13,9.07.29,12.77.49s6.21.29,7.51.29c6.76.26,12.54,1.66,17.35,4.19,4.81,2.54,8.71,5.92,11.7,10.14,2.99,4.23,5.17,9.2,6.53,14.92,1.36,5.72,1.92,11.9,1.66,18.52-.52,10.79-3.48,18.72-8.87,23.79-5.4,5.07-13.03,8.65-22.91,10.73Zm-24.77-51.29c.26,3.38.29,6.73.1,10.04-.2,3.31.03,6.53.68,9.65,1.95,0,3.9-.03,5.85-.1,1.95-.06,3.77-.39,5.46-.98,1.69-.58,3.05-1.53,4.1-2.83,1.04-1.3,1.62-3.18,1.75-5.65.26-4.16-.62-6.83-2.63-8-2.02-1.17-4.78-1.82-8.29-1.95l-7.02-.2Z"/>
    <path class="cls-1" d="m510.34,154.66c-1.17.78-3.29,1.3-6.34,1.56-3.06.26-6.27.42-9.65.49-3.38.07-6.66.07-9.85,0-3.19-.06-5.56-.1-7.12-.1-3.12,0-5.1-.39-5.95-1.17-.85-.78-1.59-2.66-2.24-5.65-.52-2.6-.98-5.3-1.37-8.09-.39-2.79-.91-5.62-1.56-8.48-3.64-1.17-7.31-1.66-11.02-1.46-3.71.2-7.38-.03-11.02-.68-1.69,4.68-2.67,8.58-2.92,11.7-.26,3.12-.42,5.69-.49,7.7-.07,2.02-.36,3.54-.88,4.58-.52,1.04-1.89,1.75-4.1,2.15-2.21.39-5.56.62-10.04.68-4.48.06-10.69.1-18.62.1-.65,0-1.43-.13-2.34-.39-.91-.26-1.36-.91-1.36-1.95,0-3.38.29-6.83.88-10.33.58-3.51,1.14-6.89,1.66-10.14,3.64-18.59,7.57-37.02,11.8-55.28,4.22-18.26,8.87-36.5,13.94-54.7.26-1.17.55-2.5.88-4,.32-1.49.78-2.92,1.37-4.29.58-1.36,1.3-2.5,2.14-3.41.84-.91,1.98-1.43,3.41-1.56,6.11-.65,12.35-.88,18.72-.68,6.37.19,12.61.29,18.72.29.78,0,1.53.07,2.24.19.71.13,1.4.26,2.05.39,4.03,24.05,8.58,47.87,13.65,71.47,5.07,23.6,10.2,47.29,15.41,71.08Zm-48.17-55.38l-5.07-26.91c-1.82,4.29-3.25,8.71-4.29,13.26-1.04,4.55-2.02,9.1-2.93,13.65h12.29Z"/>
    <path class="cls-1" d="m560.84,14.06c4.55,0,9.55.33,15.01.98,5.46.65,10.63,1.95,15.5,3.9,4.88,1.95,9.1,4.65,12.67,8.09,3.57,3.45,5.75,7.96,6.53,13.55.52,3.77.88,7.51,1.07,11.21.19,3.7.29,7.38.29,11.02,0,2.47-.65,4.45-1.95,5.95-1.3,1.5-2.96,2.67-4.97,3.51-2.02.85-4.16,1.4-6.43,1.66-2.28.26-4.39.39-6.34.39-3.77,0-6.57-.65-8.38-1.95-1.82-1.3-3.12-2.96-3.9-4.97-.78-2.01-1.33-4.19-1.66-6.53-.33-2.34-.88-4.52-1.66-6.53-.78-2.01-2.02-3.67-3.71-4.97-1.69-1.3-4.36-1.95-8-1.95s-6.83.81-9.17,2.44c-2.34,1.63-4.19,3.71-5.56,6.24-1.37,2.53-2.31,5.36-2.83,8.48-.52,3.12-.78,6.18-.78,9.17,0,4.16-.07,9.04-.2,14.62-.13,5.59.29,10.89,1.27,15.89.98,5.01,2.86,9.26,5.66,12.77,2.79,3.51,7.12,5.26,12.97,5.26,3.64,0,6.37-.71,8.19-2.15,1.82-1.43,3.15-3.25,4-5.46.84-2.21,1.4-4.65,1.66-7.31.26-2.66.68-5.13,1.27-7.41.58-2.27,1.53-4.22,2.83-5.85,1.3-1.62,3.44-2.57,6.44-2.83,2.34-.26,4.68-.52,7.02-.78,2.34-.26,4.61-.39,6.83-.39,3.25,0,5.69.42,7.31,1.27,1.62.85,2.7,1.98,3.22,3.41.52,1.43.75,3.22.68,5.36-.07,2.15-.1,4.45-.1,6.92,0,9.49-.68,17.29-2.05,23.4-1.36,6.11-3.8,10.95-7.31,14.53-3.51,3.58-8.32,6.08-14.43,7.51-6.11,1.43-13.91,2.15-23.4,2.15h-15.6c-5.2,0-10.27-.45-15.21-1.36-4.29-.78-7.74-1.98-10.33-3.61-2.6-1.62-4.68-3.57-6.24-5.85-1.56-2.27-2.73-4.91-3.51-7.9-.78-2.99-1.5-6.3-2.15-9.94-1.3-7.15-2.11-14.85-2.44-23.11-.33-8.25-.49-15.89-.49-22.91,0-6.37.32-12.9.97-19.6.65-6.69,1.3-13.16,1.95-19.4.78-5.98,2.63-10.76,5.56-14.33,2.92-3.57,6.5-6.3,10.73-8.19,4.22-1.88,8.87-3.09,13.94-3.61,5.07-.52,10.14-.78,15.21-.78Z"/>
    <path class="cls-1" d="m728.15,154.66c-1.17.78-3.28,1.3-6.34,1.56-3.06.26-6.27.42-9.65.49-3.38.07-6.66.07-9.85,0-3.19-.06-5.56-.1-7.12-.1-3.12,0-5.1-.39-5.95-1.17-.85-.78-1.59-2.66-2.24-5.65-.52-2.6-.97-5.3-1.37-8.09-.39-2.79-.91-5.62-1.56-8.48-3.64-1.17-7.31-1.66-11.02-1.46-3.71.2-7.38-.03-11.02-.68-1.69,4.68-2.67,8.58-2.92,11.7-.26,3.12-.42,5.69-.49,7.7-.07,2.02-.36,3.54-.88,4.58-.52,1.04-1.89,1.75-4.09,2.15-2.21.39-5.56.62-10.04.68-4.48.06-10.69.1-18.62.1-.65,0-1.43-.13-2.34-.39-.91-.26-1.37-.91-1.37-1.95,0-3.38.29-6.83.88-10.33.58-3.51,1.14-6.89,1.66-10.14,3.64-18.59,7.57-37.02,11.8-55.28,4.22-18.26,8.87-36.5,13.94-54.7.26-1.17.55-2.5.88-4,.32-1.49.78-2.92,1.37-4.29.58-1.36,1.3-2.5,2.14-3.41.84-.91,1.98-1.43,3.41-1.56,6.11-.65,12.35-.88,18.72-.68,6.37.19,12.61.29,18.72.29.78,0,1.53.07,2.24.19.71.13,1.39.26,2.05.39,4.03,24.05,8.58,47.87,13.65,71.47,5.07,23.6,10.2,47.29,15.4,71.08Zm-48.16-55.38l-5.07-26.91c-1.82,4.29-3.25,8.71-4.29,13.26-1.04,4.55-2.02,9.1-2.92,13.65h12.29Z"/>
    <path class="cls-1" d="m747.65,44.87c-3.51-.65-6.37-1.33-8.58-2.05-2.21-.71-3.97-1.75-5.26-3.12-1.3-1.36-2.21-3.22-2.73-5.56-.52-2.34-.78-5.46-.78-9.36,0-4.55.65-7.93,1.95-10.14,1.3-2.21,3.15-3.71,5.56-4.49,2.4-.78,5.26-1.14,8.58-1.07,3.31.07,6.99.1,11.02.1,3.64,0,6.37.42,8.19,1.27,1.82.85,3.12,2.08,3.9,3.71.78,1.63,1.17,3.64,1.17,6.04v8.09c0,2.6-.13,5.69-.39,9.26-.26,3.58-.88,7.02-1.85,10.33-.98,3.32-2.5,6.14-4.58,8.48-2.08,2.34-4.94,3.51-8.58,3.51-.91,0-1.92-.06-3.02-.19-1.11-.13-2.11-.39-3.02-.78-.91-.39-1.69-.94-2.34-1.66-.65-.71-.97-1.66-.97-2.83,0-1.56.19-3.18.58-4.88.39-1.69.78-3.25,1.17-4.68Z"/>
    <path class="cls-1" d="m787.04,115.07c8.19,0,16.31.29,24.38.88,8.06.58,16.19.88,24.38.88,1.17,0,2.44-.23,3.8-.68,1.37-.45,2.63-1.1,3.8-1.95,1.17-.84,2.14-1.85,2.92-3.02s1.17-2.47,1.17-3.9c0-3.38-1.72-6.11-5.17-8.19-3.45-2.08-7.8-4.03-13.06-5.85-5.26-1.82-10.92-3.77-16.96-5.85-6.04-2.08-11.7-4.78-16.96-8.09-5.27-3.31-9.62-7.57-13.07-12.77-3.45-5.2-5.17-11.76-5.17-19.69,0-5.85.75-10.82,2.24-14.92,1.49-4.1,3.67-7.51,6.53-10.24,2.86-2.73,6.27-4.91,10.24-6.53,3.96-1.62,8.42-2.83,13.36-3.61,5.2-.78,10.79-1.27,16.77-1.46,5.98-.2,11.7-.26,17.16-.2,5.46.07,10.46.2,15.01.39,4.55.19,8.06.29,10.53.29,1.43,0,2.96.07,4.58.19,1.62.13,3.12.49,4.49,1.07s2.5,1.4,3.41,2.44c.91,1.04,1.37,2.54,1.37,4.48,0,3.25-.13,6.63-.39,10.14-.26,3.51-.58,6.96-.98,10.33-.26,2.47-.49,4.23-.68,5.27-.19,1.04-.58,1.75-1.17,2.15-.58.39-1.43.55-2.53.49-1.11-.06-2.7-.03-4.78.1-7.02.39-14.01.39-20.96,0-6.96-.39-13.81-.58-20.57-.58-.65,0-1.69.03-3.12.1-1.43.07-2.86.23-4.29.49-1.43.26-2.7.65-3.8,1.17-1.11.52-1.66,1.3-1.66,2.34,0,2.34,1.66,4.23,4.97,5.66,3.32,1.43,7.51,2.89,12.58,4.39,5.07,1.5,10.5,3.31,16.28,5.46,5.78,2.15,11.21,5.17,16.28,9.07,5.07,3.9,9.26,8.87,12.58,14.92,3.31,6.04,4.97,13.75,4.97,23.11s-1.4,17.06-4.19,22.72c-2.8,5.66-6.63,10.01-11.5,13.06-4.88,3.06-10.63,5.07-17.26,6.04-6.63.98-13.78,1.46-21.45,1.46-6.24,0-12.48.16-18.72.49-6.24.32-12.48.36-18.72.1-2.86,0-5.07-.39-6.63-1.17-1.56-.78-2.6-2.66-3.12-5.66-.26-1.56-.58-4.29-.97-8.19s-.58-7.86-.58-11.9.32-7.57.97-10.63c.65-3.05,1.88-4.58,3.71-4.58Z"/>
  </g>
  <g>
    <path class="cls-2" d="m553.47,200.69v13.91c4.44.3,8.85.54,13.25.74,4.39.2,8.9.3,13.54.3,2.96,0,5.15.42,6.59,1.26,1.43.84,2.39,2,2.89,3.48.49,1.48.69,3.28.59,5.4-.1,2.12-.15,4.46-.15,7.03v5.33c-.2,2.27-.89,3.95-2.07,5.03-1.18,1.09-2.91,1.73-5.18,1.92-2.57.2-5.16.27-7.77.22-2.62-.05-5.23-.07-7.84-.07s-5.21.05-7.77.15c-2.57.1-5.08.4-7.55.89-.1,3.06-.1,5.8,0,8.21.1,2.42.22,4.76.37,7.03.15,2.27.22,4.61.22,7.03s-.1,5.16-.3,8.21c-.1,1.48-.25,2.66-.44,3.55-.2.89-.54,1.58-1.04,2.07-.49.5-1.18.84-2.07,1.04-.89.2-2.07.35-3.55.44-2.47.2-4.93.34-7.4.44-2.47.1-4.98.15-7.55.15-1.18,0-2.37-.07-3.55-.22-1.18-.15-2.25-.44-3.18-.89-.94-.44-1.7-1.11-2.29-2-.59-.89-.89-2.07-.89-3.55,0-5.92.02-11.54.07-16.87.05-5.33.12-10.56.22-15.69.1-5.13.17-10.36.22-15.69.05-5.33.07-10.95.07-16.87s-.32-11.44-.96-17.17c-.64-5.72-.96-11.49-.96-17.32,0-1.78.07-3.23.22-4.37.15-1.13.52-2.02,1.11-2.66.59-.64,1.45-1.08,2.59-1.33,1.13-.25,2.64-.37,4.51-.37,9.57-.2,19.12-.34,28.64-.44,9.52-.1,19.07-.15,28.64-.15,3.16,0,5.28.5,6.36,1.48,1.08.99,1.73,3.01,1.92,6.07.2,2.76.34,5.5.44,8.21.1,2.71.15,5.5.15,8.36,0,2.57-.44,4.32-1.33,5.25-.89.94-2.57,1.5-5.03,1.7-2.47.2-5.21.27-8.21.22-3.01-.05-6.07-.12-9.18-.22-3.11-.1-6.14-.17-9.1-.22-2.96-.05-5.58.07-7.84.37l.59.59Z"/>
    <path class="cls-2" d="m632.94,283.71c-2.57-.3-5.18-.62-7.84-.96-2.66-.34-5.28-.91-7.84-1.7-4.24-1.48-7.75-3.65-10.51-6.51-2.76-2.86-4.69-6.66-5.77-11.4-.99-3.85-1.73-8.09-2.22-12.73-.49-4.64-.79-9.32-.89-14.06-.1-4.74-.05-9.42.15-14.06.2-4.64.49-8.98.89-13.02.39-3.75.91-7.52,1.55-11.32.64-3.8,1.8-7.52,3.48-11.17,1.68-3.65,3.97-6.46,6.88-8.44,2.91-1.97,6.24-3.35,9.99-4.14,7.99-1.38,16.43-2.24,25.31-2.59,8.88-.34,17.41-.07,25.6.81,5.92.59,10.8,2.42,14.65,5.48,3.85,3.06,6.31,7.75,7.4,14.06,1.38,8.39,2.39,17.17,3.03,26.34.64,9.18.52,17.96-.37,26.34-.5,4.94-1.28,9.65-2.37,14.13-1.09,4.49-2.74,8.49-4.96,11.99-2.22,3.5-5.11,6.39-8.66,8.66-3.55,2.27-8.04,3.65-13.47,4.14-5.53.69-11.2,1.01-17.02.96-5.82-.05-11.5-.32-17.02-.81Zm8.58-33.15c3.16.3,6.07.47,8.73.52,2.66.05,5.03-.37,7.1-1.26,2.07-.89,3.77-2.37,5.11-4.44,1.33-2.07,2.19-5.03,2.59-8.88.3-3.16.3-6.46,0-9.92-.3-3.45-.64-6.76-1.04-9.92-.5-3.85-1.9-6.66-4.22-8.44-2.32-1.78-5.25-2.81-8.81-3.11-5.92-.69-10.43.1-13.54,2.37-3.11,2.27-5.01,6.61-5.7,13.02-.3,3.26-.25,6.83.15,10.73.39,3.9.84,7.52,1.33,10.88.3,2.66,1.11,4.66,2.44,5.99s3.28,2.15,5.85,2.44Z"/>
    <path class="cls-2" d="m737.73,283.71c-2.57-.3-5.18-.62-7.84-.96-2.66-.34-5.28-.91-7.84-1.7-4.24-1.48-7.75-3.65-10.51-6.51-2.76-2.86-4.69-6.66-5.77-11.4-.99-3.85-1.73-8.09-2.22-12.73-.5-4.64-.79-9.32-.89-14.06-.1-4.74-.05-9.42.15-14.06.2-4.64.49-8.98.89-13.02.39-3.75.91-7.52,1.55-11.32.64-3.8,1.8-7.52,3.48-11.17,1.68-3.65,3.97-6.46,6.88-8.44,2.91-1.97,6.24-3.35,9.99-4.14,7.99-1.38,16.43-2.24,25.31-2.59,8.88-.34,17.41-.07,25.6.81,5.92.59,10.8,2.42,14.65,5.48,3.85,3.06,6.31,7.75,7.4,14.06,1.38,8.39,2.39,17.17,3.03,26.34.64,9.18.52,17.96-.37,26.34-.5,4.94-1.28,9.65-2.37,14.13-1.09,4.49-2.74,8.49-4.96,11.99-2.22,3.5-5.11,6.39-8.66,8.66-3.55,2.27-8.04,3.65-13.47,4.14-5.53.69-11.2,1.01-17.02.96-5.82-.05-11.5-.32-17.02-.81Zm8.58-33.15c3.16.3,6.07.47,8.73.52,2.66.05,5.03-.37,7.1-1.26,2.07-.89,3.77-2.37,5.11-4.44,1.33-2.07,2.19-5.03,2.59-8.88.3-3.16.3-6.46,0-9.92-.3-3.45-.64-6.76-1.04-9.92-.49-3.85-1.9-6.66-4.22-8.44-2.32-1.78-5.25-2.81-8.81-3.11-5.92-.69-10.43.1-13.54,2.37-3.11,2.27-5.01,6.61-5.7,13.02-.3,3.26-.25,6.83.15,10.73.39,3.9.84,7.52,1.33,10.88.3,2.66,1.11,4.66,2.44,5.99s3.28,2.15,5.85,2.44Z"/>
    <path class="cls-2" d="m808.17,189.44c0-2.96-.03-5.5-.07-7.62-.05-2.12.17-3.87.67-5.25.49-1.38,1.43-2.39,2.81-3.03,1.38-.64,3.5-.96,6.36-.96,9.87,0,18.4.37,25.6,1.11,7.2.74,13.34,2.07,18.43,4,5.08,1.92,9.2,4.54,12.36,7.84,3.16,3.31,5.62,7.55,7.4,12.73,1.78,5.18,2.98,11.42,3.63,18.72.64,7.3.96,15.84.96,25.6,0,7.6-1.21,14.04-3.63,19.31-2.42,5.28-5.77,9.6-10.06,12.95-4.29,3.36-9.4,5.77-15.32,7.25-5.92,1.48-12.33,2.22-19.24,2.22-3.75,0-7.5-.05-11.25-.15-3.75-.1-7.5-.15-11.25-.15-4.44,0-6.66-2.27-6.66-6.81,0-6.71-.05-13.79-.15-21.24-.1-7.45-.17-14.97-.22-22.57-.05-7.6-.12-15.15-.22-22.64-.1-7.5-.15-14.6-.15-21.31Zm29.01,62.31c3.95-.3,7.1-.89,9.47-1.78,2.37-.89,4.22-2.19,5.55-3.92,1.33-1.72,2.22-3.9,2.66-6.51.44-2.61.67-5.85.67-9.69,0-1.58-.07-3.8-.22-6.66-.15-2.86-.52-5.72-1.11-8.58-.59-2.86-1.46-5.4-2.59-7.62-1.13-2.22-2.69-3.57-4.66-4.07-.79-.2-1.65-.34-2.59-.44-.94-.1-1.85-.15-2.74-.15-1.78,0-3.26.15-4.44.44v48.99Z"/>
  </g>
</svg>