<?xml version="1.0" encoding="UTF-8"?>
<svg id="Camada_1" data-name="Camada 1" xmlns="http://www.w3.org/2000/svg" viewBox="0 0 1920 271.44">
  <defs>
    <style>
      .cls-1 {
        fill: #ec6e00;
      }

      .cls-2 {
        fill: #ffce35;
      }
    </style>
  </defs>
  <path class="cls-2" d="m72.59,12.51c25.78,0,38.27,8.04,51.56,16.47,12.89,8.23,26.28,16.86,52.66,16.86s39.67-8.53,52.66-16.86c13.29-8.53,25.78-16.47,51.56-16.47s38.27,8.04,51.56,16.47c12.89,8.23,26.28,16.86,52.66,16.86s39.78-8.53,52.66-16.86c13.29-8.53,25.78-16.47,51.56-16.47s38.27,8.04,51.56,16.47c12.89,8.23,26.28,16.86,52.66,16.86s39.78-8.53,52.66-16.86c13.29-8.53,25.78-16.47,51.56-16.47s38.27,8.04,51.56,16.47c12.89,8.23,26.28,16.86,52.66,16.86s39.78-8.53,52.66-16.86c13.29-8.53,25.78-16.47,51.56-16.47s38.27,8.04,51.56,16.47c12.89,8.23,26.28,16.86,52.66,16.86s39.67-8.53,52.66-16.86c13.29-8.53,25.78-16.47,51.56-16.47s38.27,8.04,51.56,16.47c12.89,8.23,26.28,16.86,52.66,16.86s39.67-8.53,52.66-16.86c13.29-8.53,25.78-16.47,51.56-16.47s38.27,8.04,51.56,16.47c12.89,8.23,26.28,16.86,52.66,16.86s39.67-8.53,52.66-16.86c13.29-8.53,25.78-16.47,51.56-16.47s38.27,8.04,51.56,16.47c12.89,8.23,26.28,16.86,52.66,16.86s39.67-8.53,52.66-16.86c13.29-8.53,25.78-16.47,51.56-16.47s38.27,8.04,51.56,16.47c12.89,8.23,26.28,16.86,52.66,16.86s39.67-8.53,52.66-16.86c8.96-5.69,17.52-11.17,30.01-14.21v198.3H-11.6V43.88c14.1-3.04,23.46-9.02,32.63-14.9,13.29-8.53,25.78-16.47,51.56-16.47h0Z"/>
  <path class="cls-1" d="m72.59,40.94c25.78,0,38.27,8.04,51.56,16.47,12.89,8.23,26.28,16.86,52.66,16.86s39.67-8.53,52.66-16.86c13.29-8.53,25.78-16.47,51.56-16.47s38.27,8.04,51.56,16.47c12.89,8.23,26.28,16.86,52.66,16.86s39.78-8.53,52.66-16.86c13.29-8.53,25.78-16.47,51.56-16.47s38.27,8.04,51.56,16.47c12.89,8.23,26.28,16.86,52.66,16.86s39.78-8.53,52.66-16.86c13.29-8.53,25.78-16.47,51.56-16.47s38.27,8.04,51.56,16.47c12.89,8.23,26.28,16.86,52.66,16.86s39.78-8.53,52.66-16.86c13.29-8.53,25.78-16.47,51.56-16.47s38.27,8.04,51.56,16.47c12.89,8.23,26.28,16.86,52.66,16.86s39.67-8.53,52.66-16.86c13.29-8.53,25.78-16.47,51.56-16.47s38.27,8.04,51.56,16.47c12.89,8.23,26.28,16.86,52.66,16.86s39.67-8.53,52.66-16.86c13.29-8.53,25.78-16.47,51.56-16.47s38.27,8.04,51.56,16.47c12.89,8.23,26.28,16.86,52.66,16.86s39.67-8.53,52.66-16.86c13.29-8.53,25.78-16.47,51.56-16.47s38.27,8.04,51.56,16.47c12.89,8.23,26.28,16.86,52.66,16.86s39.67-8.53,52.66-16.86c13.29-8.53,25.78-16.47,51.56-16.47s38.27,8.04,51.56,16.47c12.89,8.23,26.28,16.86,52.66,16.86s39.67-8.53,52.66-16.86c8.96-5.69,17.52-11.17,30.01-14.21v198.3H-11.6V72.31c14.1-3.04,23.46-9.02,32.63-14.9,13.29-8.53,25.78-16.47,51.56-16.47h0Z"/>
  <path class="cls-2" d="m72.59,73.48c25.78,0,38.27,8.04,51.56,16.47,12.89,8.23,26.28,16.86,52.66,16.86s39.67-8.53,52.66-16.86c13.29-8.53,25.78-16.47,51.56-16.47s38.27,8.04,51.56,16.47c12.89,8.23,26.28,16.86,52.66,16.86s39.78-8.53,52.66-16.86c13.29-8.53,25.78-16.47,51.56-16.47s38.27,8.04,51.56,16.47c12.89,8.23,26.28,16.86,52.66,16.86s39.78-8.53,52.66-16.86c13.29-8.53,25.78-16.47,51.56-16.47s38.27,8.04,51.56,16.47c12.89,8.23,26.28,16.86,52.66,16.86s39.78-8.53,52.66-16.86c13.29-8.53,25.78-16.47,51.56-16.47s38.27,8.04,51.56,16.47c12.89,8.23,26.28,16.86,52.66,16.86s39.67-8.53,52.66-16.86c13.29-8.53,25.78-16.47,51.56-16.47s38.27,8.04,51.56,16.47c12.89,8.23,26.28,16.86,52.66,16.86s39.67-8.53,52.66-16.86c13.29-8.53,25.78-16.47,51.56-16.47s38.27,8.04,51.56,16.47c12.89,8.23,26.28,16.86,52.66,16.86s39.67-8.53,52.66-16.86c13.29-8.53,25.78-16.47,51.56-16.47s38.27,8.04,51.56,16.47c12.89,8.23,26.28,16.86,52.66,16.86s39.67-8.53,52.66-16.86c13.29-8.53,25.78-16.47,51.56-16.47s38.27,8.04,51.56,16.47c12.89,8.23,26.28,16.86,52.66,16.86s39.67-8.53,52.66-16.86c8.96-5.69,17.52-11.17,30.01-14.21v194.92H-11.6V104.85c14.1-3.04,23.46-9.02,32.63-14.9,13.29-8.43,25.78-16.47,51.56-16.47h0Z"/>
</svg>